
<svg width="1026" height="1026" viewBox="0 0 1026 1026" fill="none" xmlns="http://www.w3.org/2000/svg">
<path d="M223.057 657.409C122.805 601.884 118.52 459.302 215.257 397.856L269.661 363.299C301.09 343.336 338.787 335.688 375.511 341.825L727.159 400.59C840.008 419.449 891.703 552.075 821.385 642.329L712.159 782.521C666.474 841.158 584.91 857.824 519.884 821.809L223.057 657.409Z" fill="#4F9FE8" fill-opacity="0.5"/>
<path d="M250.057 661.774C149.805 606.249 145.52 463.666 242.257 402.22L278.431 379.243C309.86 359.279 347.557 351.632 384.282 357.769L698.154 410.221C811.004 429.08 862.699 561.706 792.38 651.96L702.903 766.805C657.218 825.442 575.653 842.108 510.628 806.093L250.057 661.774Z" fill="#4F9FE8"/>
</svg>
