<svg width="46" height="46" viewBox="0 0 46 46" fill="none" xmlns="http://www.w3.org/2000/svg">
<path d="M25.3131 0.932373C27.8443 0.939123 29.1291 0.952623 30.2383 0.984123L30.6748 0.999873C31.1788 1.01787 31.6761 1.04037 32.2768 1.06737C34.6708 1.17987 36.3043 1.55787 37.7376 2.11362C39.2226 2.68512 40.4736 3.45912 41.7246 4.70787C42.8687 5.83264 43.754 7.1932 44.3188 8.69487C44.8746 10.1281 45.2526 11.7616 45.3651 14.1579C45.3921 14.7564 45.4146 15.2536 45.4326 15.7599L45.4461 16.1964C45.4798 17.3034 45.4933 18.5881 45.4978 21.1194L45.5001 22.7979V25.7454C45.5056 27.3865 45.4884 29.0277 45.4483 30.6684L45.4348 31.1049C45.4168 31.6111 45.3943 32.1084 45.3673 32.7069C45.2548 35.1031 44.8723 36.7344 44.3188 38.1699C43.7556 39.6724 42.8701 41.0333 41.7246 42.1569C40.5995 43.3006 39.239 44.1858 37.7376 44.7511C36.3043 45.3069 34.6708 45.6849 32.2768 45.7974C31.7429 45.8225 31.2089 45.845 30.6748 45.8649L30.2383 45.8784C29.1291 45.9099 27.8443 45.9256 25.3131 45.9301L23.6346 45.9324H20.6893C19.0474 45.938 17.4055 45.9208 15.7641 45.8806L15.3276 45.8671C14.7935 45.8469 14.2594 45.8236 13.7256 45.7974C11.3316 45.6849 9.69808 45.3069 8.26258 44.7511C6.76108 44.1872 5.40107 43.3018 4.27783 42.1569C3.13268 41.0325 2.24658 39.6719 1.68133 38.1699C1.12558 36.7366 0.747577 35.1031 0.635077 32.7069C0.61001 32.173 0.58751 31.639 0.567577 31.1049L0.556328 30.6684C0.514865 29.0277 0.496113 27.3866 0.500078 25.7454V21.1194C0.493798 19.4782 0.5103 17.8371 0.549578 16.1964L0.565328 15.7599C0.583328 15.2536 0.605828 14.7564 0.632828 14.1579C0.745328 11.7616 1.12333 10.1304 1.67908 8.69487C2.24408 7.19166 3.13195 5.83068 4.28008 4.70787C5.40303 3.56369 6.76215 2.67834 8.26258 2.11362C9.69808 1.55787 11.3293 1.17987 13.7256 1.06737C14.3241 1.04037 14.8236 1.01787 15.3276 0.999873L15.7641 0.986373C17.4048 0.946397 19.0459 0.929145 20.6871 0.934623L25.3131 0.932373ZM23.0001 12.1824C20.0164 12.1824 17.1549 13.3676 15.0451 15.4774C12.9353 17.5872 11.7501 20.4487 11.7501 23.4324C11.7501 26.4161 12.9353 29.2775 15.0451 31.3873C17.1549 33.4971 20.0164 34.6824 23.0001 34.6824C25.9838 34.6824 28.8452 33.4971 30.955 31.3873C33.0648 29.2775 34.2501 26.4161 34.2501 23.4324C34.2501 20.4487 33.0648 17.5872 30.955 15.4774C28.8452 13.3676 25.9838 12.1824 23.0001 12.1824ZM23.0001 16.6824C23.8865 16.6822 24.7643 16.8567 25.5833 17.1958C26.4023 17.5348 27.1465 18.0319 27.7734 18.6586C28.4003 19.2853 28.8976 20.0293 29.237 20.8482C29.5763 21.6671 29.7511 22.5448 29.7512 23.4312C29.7513 24.3177 29.5769 25.1954 29.2378 26.0144C28.8987 26.8335 28.4017 27.5776 27.775 28.2045C27.1483 28.8314 26.4042 29.3288 25.5854 29.6681C24.7665 30.0075 23.8888 30.1822 23.0023 30.1824C21.2121 30.1824 19.4952 29.4712 18.2294 28.2053C16.9635 26.9395 16.2523 25.2226 16.2523 23.4324C16.2523 21.6422 16.9635 19.9253 18.2294 18.6594C19.4952 17.3935 21.2121 16.6824 23.0023 16.6824M34.8148 8.80737C34.0689 8.80737 33.3535 9.10369 32.8261 9.63114C32.2986 10.1586 32.0023 10.874 32.0023 11.6199C32.0023 12.3658 32.2986 13.0812 32.8261 13.6086C33.3535 14.1361 34.0689 14.4324 34.8148 14.4324C35.5607 14.4324 36.2761 14.1361 36.8036 13.6086C37.331 13.0812 37.6273 12.3658 37.6273 11.6199C37.6273 10.874 37.331 10.1586 36.8036 9.63114C36.2761 9.10369 35.5607 8.80737 34.8148 8.80737Z" fill="#91ADBD"/>
</svg>
