<svg width="54" height="55" viewBox="0 0 54 55" fill="none" xmlns="http://www.w3.org/2000/svg">
<path d="M42.75 7.18243C43.9435 7.18243 45.0881 7.65654 45.932 8.50045C46.7759 9.34437 47.25 10.489 47.25 11.6824V43.1824C47.25 44.3759 46.7759 45.5205 45.932 46.3644C45.0881 47.2083 43.9435 47.6824 42.75 47.6824H11.25C10.0565 47.6824 8.91193 47.2083 8.06802 46.3644C7.22411 45.5205 6.75 44.3759 6.75 43.1824V11.6824C6.75 10.489 7.22411 9.34437 8.06802 8.50045C8.91193 7.65654 10.0565 7.18243 11.25 7.18243H42.75ZM41.625 42.0574V30.1324C41.625 28.1871 40.8522 26.3214 39.4766 24.9458C38.101 23.5702 36.2354 22.7974 34.29 22.7974C32.3775 22.7974 30.15 23.9674 29.07 25.7224V23.2249H22.7925V42.0574H29.07V30.9649C29.07 29.2324 30.465 27.8149 32.1975 27.8149C33.0329 27.8149 33.8341 28.1468 34.4249 28.7375C35.0156 29.3283 35.3475 30.1295 35.3475 30.9649V42.0574H41.625ZM15.48 19.6924C16.4825 19.6924 17.444 19.2942 18.1529 18.5853C18.8618 17.8764 19.26 16.915 19.26 15.9124C19.26 13.8199 17.5725 12.1099 15.48 12.1099C14.4715 12.1099 13.5043 12.5106 12.7912 13.2237C12.0781 13.9368 11.6775 14.9039 11.6775 15.9124C11.6775 18.0049 13.3875 19.6924 15.48 19.6924ZM18.6075 42.0574V23.2249H12.375V42.0574H18.6075Z" fill="#91ADBD"/>
</svg>
