<svg width="1920" height="239" viewBox="0 0 1920 239" fill="none" xmlns="http://www.w3.org/2000/svg">
<path d="M0 95.5V95.5C100.436 74.2858 203.479 68.2034 305.713 77.4543L367 83L960 65L1115.14 75.6786C1185.9 80.5498 1256.96 79.0754 1327.47 71.2732L1404.58 62.74C1448.03 57.9308 1490.76 47.9142 1531.82 32.9058V32.9058C1573.45 17.692 1616.78 7.60828 1660.85 2.87772L1681.1 0.703955C1689.83 -0.233033 1692.19 12.3736 1683.71 14.658L1674.94 17.0227C1642.6 25.7378 1648.5 73.2798 1681.99 73.8211L1724 74.5L1920 95.5V238.5H0V95.5Z" fill="#6AC7FA"/>
</svg>
