<svg width="300" height="300" viewBox="0 0 300 300" fill="none" xmlns="http://www.w3.org/2000/svg">
<path d="M242.912 39.4743C228.463 50.5586 222.257 23.1249 178.269 18.6073C140.176 14.6952 137.926 21.2161 132.294 14.0432C132.103 13.7997 119.482 10.1311 164.098 10.1311C208.713 10.1311 231.747 20.5658 242.912 39.4743Z" fill="white"/>
<path d="M212.139 163.656C208.855 178.653 195.391 244.013 193.092 200.169C188.819 118.667 138.58 76.2859 103.114 45.6412C99.8312 35.2089 91.1089 19.5605 91.1097 0C202.287 97.8025 202.287 142.14 212.139 163.656Z" fill="white"/>
<path d="M23.6439 171.48C34.1523 252.982 154.686 299.928 151.058 299.928C147.431 299.928 23.6439 296.668 9.19486 165.613C9.19486 133.564 10.165 118.015 13.7923 118.015C21.6749 126.491 23.6439 139.432 23.6439 171.48Z" fill="white"/>
<path d="M299.49 178.653C267.965 307.1 154.686 299.928 151.058 299.928C147.431 299.928 260.083 271.239 284.384 178.653C289.638 151.268 286.354 139.532 298.176 132.359C301.271 130.482 299.49 140.836 299.49 178.653Z" fill="white"/>
<path d="M151.058 299.928C233.812 284.931 245.321 250.374 241.694 250.374C235.126 254.938 216.079 276.455 154.342 281.019C114.936 279.715 79.7833 259.448 83.4105 259.448C91.2931 267.923 121.504 290.799 151.058 299.928Z" fill="white"/>
<path d="M5.91098 45.6412L26.271 35.8609L145.804 281.019L114.936 277.107L5.91098 45.6412Z" fill="white"/>
<path d="M249.575 64.5496L281.757 78.242L194.406 277.107L164.851 281.019L249.575 64.5496Z" fill="white"/>
<path d="M36.7794 48.9012C36.7794 58.2638 28.5461 65.8537 18.3897 65.8537C8.23336 65.8537 0 58.2638 0 48.9012C0 39.5387 8.23336 31.9488 18.3897 31.9488C28.5461 31.9488 36.7794 39.5387 36.7794 48.9012Z" fill="white"/>
<path d="M287.668 95.8464C287.668 114.572 272.671 129.751 254.172 129.751C235.673 129.751 220.677 114.572 220.677 95.8464C220.677 77.1213 235.673 61.9416 254.172 61.9416C272.671 61.9416 287.668 77.1213 287.668 95.8464Z" fill="white"/>
<path d="M239.067 114.105C239.067 124.188 236.695 145.523 230.528 145.523C224.362 145.523 216.078 161.351 216.078 151.268C216.078 141.186 211.482 120.623 221.333 99.7587C221.333 90.6313 239.067 104.022 239.067 114.105Z" fill="white"/>
<path d="M85.3809 4.56412L86.0376 1.30403H91.2918L95.2325 2.60807L143.177 278.411L133.982 268.631L85.3809 4.56412Z" fill="white"/>
<path d="M49.2582 149.964L52.5421 142.792L114.279 256.243L99.8299 246.462L49.2582 149.964Z" fill="white"/>
<path d="M22.3304 176.696L54.5124 144.096L64.364 166.916L24.9575 191.693L22.3304 176.696Z" fill="white"/>
<path d="M70.275 134.967L133.326 131.055L136.609 137.576C115.064 145.978 102.985 150.689 81.4402 159.092L70.275 134.967Z" fill="white"/>
<path d="M123.474 140.184L136.609 136.923L137.923 141.488L118.876 144.096L123.474 140.184Z" fill="white"/>
<path d="M81.4402 154.528L88.6647 153.876L133.326 251.678L88.008 201.473L81.4402 154.528Z" fill="white"/>
</svg>
