<svg width="446" height="321" viewBox="0 0 446 321" fill="none" xmlns="http://www.w3.org/2000/svg">
<g clip-path="url(#clip0_925_118)">
<path d="M74.8415 308.13C74.4841 308.146 74.1304 308.053 73.8281 307.861C73.5259 307.67 73.2898 307.391 73.1517 307.061C73.0137 306.731 72.9805 306.367 73.0566 306.017C73.1327 305.668 73.3144 305.351 73.577 305.108L73.6966 304.633C73.6808 304.595 73.665 304.557 73.6491 304.519C73.2891 303.669 72.6858 302.945 71.9151 302.436C71.1444 301.928 70.2406 301.659 69.3172 301.662C68.3938 301.666 67.492 301.942 66.7251 302.456C65.9582 302.97 65.3603 303.699 65.0067 304.551C63.5932 307.953 61.7935 311.361 61.3504 314.958C61.1552 316.549 61.2376 318.16 61.5937 319.722C58.2738 312.485 56.5498 304.619 56.5387 296.657C56.538 294.659 56.6491 292.663 56.8714 290.678C57.0552 289.05 57.3101 287.434 57.6361 285.829C59.4156 277.124 63.2361 268.964 68.7839 262.02C71.469 260.556 73.6405 258.304 75.0058 255.569C75.5004 254.586 75.8499 253.536 76.0436 252.452C75.7407 252.492 74.9015 247.882 75.13 247.599C74.7078 246.959 73.9523 246.641 73.4913 246.016C71.1985 242.91 68.0396 243.452 66.3905 247.674C62.8676 249.451 62.8335 252.397 64.9951 255.231C66.3703 257.034 66.5593 259.474 67.766 261.405C67.6418 261.563 67.5127 261.717 67.3885 261.876C65.1192 264.792 63.1414 267.924 61.4833 271.225C61.8866 267.526 61.4053 263.785 60.0792 260.308C58.7352 257.068 56.216 254.339 53.9976 251.538C51.3329 248.173 45.8688 249.642 45.3993 253.907C45.3948 253.948 45.3903 253.989 45.386 254.031C45.7155 254.216 46.0381 254.413 46.3537 254.622C46.7501 254.887 47.0573 255.265 47.235 255.707C47.4127 256.149 47.4526 256.635 47.3495 257.1C47.2464 257.565 47.005 257.989 46.657 258.314C46.3091 258.64 45.8708 258.853 45.3995 258.926L45.3513 258.933C45.4686 260.12 45.6761 261.296 45.9719 262.452C43.126 273.451 49.2702 277.457 58.0433 277.637C58.2369 277.736 58.4256 277.835 58.6194 277.929C56.9535 282.647 55.9086 287.561 55.5108 292.548C55.2857 295.491 55.299 298.446 55.5506 301.386L55.5356 301.282C54.9 298.013 53.1548 295.063 50.5948 292.931C46.7927 289.809 41.4209 288.66 37.3189 286.151C36.883 285.871 36.3761 285.722 35.8581 285.721C35.34 285.719 34.8324 285.866 34.3951 286.144C33.9578 286.421 33.6091 286.818 33.39 287.287C33.171 287.756 33.0907 288.278 33.1588 288.792C33.1643 288.828 33.1699 288.865 33.1756 288.901C33.787 289.15 34.3824 289.437 34.9582 289.76C35.2877 289.945 35.6103 290.143 35.9258 290.351C36.3223 290.616 36.6295 290.994 36.8072 291.436C36.9849 291.878 37.0248 292.364 36.9216 292.829C36.8185 293.294 36.5771 293.718 36.2292 294.043C35.8813 294.369 35.4429 294.582 34.9717 294.655L34.9234 294.662C34.8887 294.667 34.8589 294.672 34.8242 294.677C35.8689 297.17 37.3353 299.465 39.1591 301.461C40.9386 311.062 48.5816 311.973 56.7572 309.177H56.7622C57.6592 313.073 58.9589 316.865 60.6403 320.492H74.4943C74.544 320.338 74.5887 320.179 74.6334 320.025C73.351 320.106 72.0636 320.029 70.7999 319.797C71.8278 318.536 72.8557 317.266 73.8835 316.006C73.9065 315.982 73.928 315.957 73.9481 315.931C74.4695 315.286 74.9959 314.646 75.5172 314.001L75.5175 314C75.5453 312.023 75.3182 310.05 74.8419 308.13L74.8415 308.13H74.8415Z" fill="#0C0C1A"/>
<path d="M90.7764 320.181H113.132C116.956 307.315 113.153 276.909 118.193 264.481C127.862 240.653 140.214 215.51 163.269 203.875C173.113 198.907 183.847 196.966 194.808 197.072C209.95 197.215 225.518 201.277 239.771 206.661C245.601 208.858 251.378 211.274 257.132 213.743C278.812 223.053 300.256 233.193 323.57 235.934C353.071 239.399 387.756 226.209 395.814 197.797C401.964 176.044 390.888 153.461 379.273 134.034C367.658 114.607 354.675 93.8206 356.796 71.328C356.803 71.2526 356.811 71.1695 356.826 71.094C357.624 63.0151 362.451 57.209 369.194 53.4867H339.837C339.449 74.4691 351.596 92.99 362.527 111.277C374.142 130.697 385.218 153.287 379.068 175.04C371.01 203.444 304.29 170.148 274.788 166.675C266.457 165.701 279.691 169.167 271.748 166.675C259.289 162.772 257.908 198.574 245.783 193.319C238.235 190.042 230.679 186.788 223.025 183.896C219.855 182.696 216.617 181.571 213.34 180.529C213.337 180.529 213.335 180.528 213.332 180.527C213.329 180.525 213.327 180.524 213.325 180.521C191.326 173.56 167.268 170.849 146.941 180.914C146.805 180.982 146.66 181.05 146.523 181.118C123.468 192.745 111.116 217.888 101.446 241.717C93.4573 261.416 94.7139 299.403 90.7764 320.181L90.7764 320.181Z" fill="#0C0C1A"/>
<path d="M223.297 319.522C114.191 321.832 111.799 274.071 111.799 217.262C111.799 160.453 161.552 116.013 223.206 116.013C284.86 116.013 333.825 160.437 333.825 217.244C333.825 274.051 284.951 319.522 223.297 319.522Z" fill="#121222"/>
<path d="M222.675 320.143C113.57 322.453 111.177 274.692 111.177 217.883C111.177 161.074 161.336 114.858 222.99 114.858C284.644 114.858 334.803 161.075 334.803 217.883C334.803 274.69 284.329 320.143 222.675 320.143ZM222.99 117.693C163.033 117.693 115.264 162.646 114.254 217.883C113.315 269.26 172.55 333.371 222.99 318.074C250.04 290.625 326.517 261.06 331.727 217.883C338.352 162.976 282.948 117.693 222.99 117.693L222.99 117.693Z" fill="#3F3D56"/>
<path d="M3.2738e-06 320.261C-0.000286368 320.358 0.0186457 320.454 0.0557104 320.544C0.0927751 320.634 0.147241 320.715 0.215975 320.784C0.284708 320.853 0.366353 320.907 0.456212 320.944C0.546071 320.981 0.642372 321 0.739573 321H445.26C445.457 321 445.645 320.922 445.783 320.783C445.922 320.645 446 320.457 446 320.261C446 320.065 445.922 319.877 445.783 319.738C445.645 319.6 445.457 319.522 445.26 319.522H0.739573C0.642372 319.522 0.546073 319.54 0.456215 319.577C0.366357 319.615 0.284713 319.669 0.21598 319.738C0.147247 319.806 0.0927811 319.888 0.0557155 319.978C0.0186499 320.068 -0.000283893 320.164 3.2738e-06 320.261V320.261Z" fill="#060610"/>
<path d="M299.525 310.802H291.849L288.197 281.212L299.527 281.213L299.525 310.802Z" fill="#A0616A"/>
<path d="M299.796 318.805L276.19 318.804V318.506C276.191 316.071 277.159 313.735 278.882 312.013C280.605 310.291 282.942 309.324 285.378 309.324H285.379L289.691 306.055L297.736 309.324L299.796 309.324L299.796 318.805V318.805Z" fill="#2F2E41"/>
<path d="M287.862 242.213C279.096 233.707 269.022 226.66 258.024 221.34L252.414 227.668L255.987 220.377C241.266 213.66 225.286 210.142 209.103 210.056C192.92 209.971 176.904 213.32 162.113 219.882L165.027 226.208L160.552 220.586C148.999 225.956 138.425 233.221 129.271 242.078C128.33 242.955 127.748 244.149 127.639 245.43C127.592 246.126 127.696 246.824 127.942 247.477C128.188 248.13 128.572 248.722 129.067 249.214C130.477 249.881 132.487 251.412 135.474 255.616C136.389 256.518 137.622 257.028 138.908 257.036C140.194 257.044 141.433 256.55 142.36 255.658C160.096 238.501 183.812 228.909 208.497 228.909C233.181 228.909 256.897 238.501 274.633 255.658C275.56 256.55 276.799 257.044 278.085 257.036C279.371 257.028 280.604 256.518 281.519 255.616C284.525 252.915 285.227 249.096 287.809 249.331C288.718 248.452 289.269 247.268 289.357 246.007C289.395 245.305 289.282 244.602 289.024 243.947C288.766 243.293 288.369 242.701 287.862 242.213V242.213Z" fill="#666CDE"/>
<path d="M229.336 251.421L221.66 251.421L218.008 221.831L229.337 221.832L229.336 251.421Z" fill="#A0616A"/>
<path d="M229.606 259.424L206.001 259.423V259.125C206.001 256.69 206.969 254.354 208.692 252.632C210.415 250.911 212.752 249.943 215.189 249.943H215.189L219.501 246.674L227.546 249.944L229.607 249.944L229.606 259.424V259.424Z" fill="#2F2E41"/>
<path d="M308.302 142.48L253.825 148.168L240.44 161.385L219.148 168.333C216.467 169.208 214.117 170.88 212.413 173.125C210.709 175.37 209.732 178.082 209.612 180.898C209.058 193.875 207.963 215.421 206.807 215.195C205.153 214.873 208.458 222.947 210.773 222.478C213.088 222.009 215.495 227.274 213.895 228.21C212.294 229.146 214.96 237.153 214.96 237.153L231.635 234.468C233.722 218.735 241.346 202.151 232.361 190.575C247.577 185.64 260.982 181.514 270.838 178.97L276.169 176.76L287.237 294.283L302.889 294.54C307.208 272.337 309.378 252.353 306.002 238.098C306.002 238.098 306.487 195.272 308.338 195.741C310.189 196.209 308.62 190.63 308.62 190.63C308.62 190.63 306.999 185.878 308.99 183.907C310.982 181.936 309.739 170.343 309.739 170.343C313.03 159.371 312.039 150.312 308.302 142.48V142.48Z" fill="#2F2E41"/>
<path d="M314.743 118.499C315.282 116.081 315.822 113.663 316.361 111.244C317.877 104.472 319.39 97.7031 320.9 90.9371C322.884 82.0719 324.875 72.8981 323.17 63.9772C322.914 62.6355 322.556 61.3154 322.098 60.0283C319.543 52.7255 313.902 46.3263 306.42 44.9787L305.198 40.427L288.503 38.3734L285.344 42.728C278.543 42.1846 274.506 48.9518 269.815 54.5286L267.95 56.3917C266.592 58.0899 266.313 64.4697 265.465 66.3286C261.692 74.5945 266.891 66.5615 266.708 75.6443C266.518 85.0565 264.666 94.1898 264.476 103.601C264.456 104.611 262.281 105.381 261.907 107.152C261.705 108.107 263.39 109.88 263.135 110.948C262.916 111.86 264.005 115.525 263.771 116.467C262.688 120.84 260.233 122.561 260.126 124.717C260.077 125.547 259.953 126.37 259.756 127.178C259.622 127.751 257.74 127.064 257.557 127.646C257.249 128.624 258.604 130.876 258.232 131.855C257.514 133.749 257.997 137.094 257.557 138.825C255.71 146.092 256.419 143.209 252.414 149.549C262.664 152.646 267.092 163.017 277.636 164.884C278.111 163.349 278.585 161.81 279.057 160.267C280.455 160.357 281.861 160.44 283.267 160.517C283.346 161.857 283.426 163.197 283.505 164.529C294.193 165.218 304.913 165.276 315.608 164.704C315.249 163.63 314.963 162.533 314.751 161.421C314.164 158.328 315.426 154.975 315.56 151.914C315.656 149.646 314.577 147.719 314.608 145.277C314.616 144.825 317.155 144.445 317.147 143.984C317.107 139.924 314.799 134.493 315.56 130.504C316.354 126.405 313.839 122.576 314.743 118.501V118.499L314.743 118.499Z" fill="#3F3D56"/>
<path d="M236.654 20.4359C235.238 20.4375 233.881 21.0001 232.88 22.0003C231.88 23.0005 231.317 24.3566 231.315 25.7711V57.919C231.317 59.3335 231.88 60.6896 232.88 61.6898C233.881 62.69 235.238 63.2526 236.654 63.2543H246.606C248.021 63.2526 249.378 62.69 250.379 61.6898C251.38 60.6896 251.943 59.3335 251.945 57.919C253.531 41.7655 252.948 33.0479 251.945 25.7711C251.943 24.3566 251.38 23.0005 250.379 22.0003C249.378 21.0001 248.021 20.4375 246.606 20.4359H236.654V20.4359Z" fill="#666CDE"/>
<path d="M235.411 20.4359C233.995 20.4375 232.638 21.0001 231.638 22.0003C230.637 23.0005 230.074 24.3565 230.072 25.771C229.5 38.4079 229.103 50.4596 230.072 57.9189C230.074 59.3334 230.637 60.6896 231.637 61.6898C232.638 62.69 233.995 63.2527 235.411 63.2543H245.363C246.778 63.2526 248.135 62.69 249.136 61.6898C250.137 60.6896 250.7 59.3335 250.702 57.919V25.7711C250.7 24.3566 250.137 23.0006 249.136 22.0004C248.135 21.0002 246.778 20.4375 245.363 20.4359L235.411 20.4359Z" fill="#3F3D56"/>
<path d="M261.031 67.2238C261.031 67.2238 270.444 66.8423 265.653 70.9039C262.535 73.547 255.515 91.9472 248.221 94.1731C247.362 94.4348 246.458 94.5153 245.567 94.4096C244.675 94.3039 243.815 94.0143 243.042 93.5592C242.268 93.104 241.597 92.4933 241.072 91.7655C240.547 91.0378 240.179 90.209 239.991 89.3317L233.379 58.5342L242.016 57.2213L247.279 81.5963L261.031 67.2238V67.2238Z" fill="#A0616A"/>
<path d="M238.175 60.7835C241.549 60.7835 244.283 58.0504 244.283 54.679C244.283 51.3075 241.549 48.5745 238.175 48.5745C234.801 48.5745 232.066 51.3075 232.066 54.679C232.066 58.0504 234.801 60.7835 238.175 60.7835Z" fill="#A0616A"/>
<path d="M273.799 50.3947C279.395 54.5943 281.043 68.3656 277.527 74.412C270.805 85.9701 257.553 94.869 256.988 93.6331C256.214 91.9407 254.866 94.2132 254.912 94.9572C254.957 95.7011 252.405 95.4793 252.702 96.2666C252.999 97.0539 250.985 97.2249 250.11 97.6814C250.11 97.6814 242.102 97.8167 239.576 94.1648C237.049 90.513 236.711 85.4664 236.711 85.4664L233.574 81.7787L250.203 72.0646L248.832 78.6213L257.127 68.9688L258.883 65.0962L261.684 63.6669L262.612 60.7489L265.194 59.582L275.408 47.697L273.799 50.3947L273.799 50.3947Z" fill="#3F3D56"/>
<path d="M319.745 163.525C320.443 163.065 321.032 162.457 321.47 161.745C321.907 161.033 322.183 160.234 322.278 159.404C322.373 158.574 322.285 157.733 322.02 156.941C321.755 156.148 321.319 155.424 320.743 154.818L321.918 102.597L311.593 104.202L312.321 154.853C311.367 155.887 310.825 157.235 310.799 158.642C310.773 160.048 311.264 161.416 312.179 162.485C313.094 163.554 314.37 164.25 315.764 164.442C317.159 164.633 318.575 164.307 319.745 163.525V163.525Z" fill="#A0616A"/>
<path d="M320.196 58.0836C320.196 58.0836 319.511 58.6009 323.023 63.9492C323.72 65.0098 324.192 69.2865 324.522 74.8673C324.63 76.6855 325.665 77.9628 325.746 79.9917C325.814 81.7135 324.93 84.1668 324.983 85.9524C325.011 86.9048 325.721 87.7335 325.746 88.6864C325.756 89.0836 325.081 89.6073 325.091 90.0031C325.101 90.4299 325.111 90.8554 325.12 91.2797C325.362 101.887 325.414 111.467 325.653 111.305C326.164 110.96 324.895 112.743 325.53 113.041C326.164 113.339 324.988 114.816 325.291 115.582C325.66 116.514 325.201 117.544 324.911 118.48C324.073 121.184 323.892 123.506 323.164 124.791C324.029 125.287 324.704 126.056 325.083 126.978C325.462 127.9 325.524 128.921 325.258 129.882L310.706 127.252C308.931 124.412 309.188 121.431 310.397 120.911L310.037 111.668L305.892 63.8481L318.039 58.4285L320.196 58.0836V58.0836Z" fill="#3F3D56"/>
<path d="M229.875 28.681C229.666 28.681 229.496 28.7805 229.496 28.9028V30.6771C229.496 30.7994 229.666 30.8989 229.875 30.8989C230.084 30.8989 230.254 30.7994 230.254 30.6771V28.9028C230.254 28.7805 230.084 28.681 229.875 28.681Z" fill="#3F3D56"/>
<path d="M229.875 33.3828C229.666 33.3828 229.496 33.4823 229.496 33.6046V37.0423C229.496 37.1646 229.666 37.264 229.875 37.264C230.084 37.264 230.254 37.1646 230.254 37.0423V33.6046C230.254 33.4823 230.084 33.3828 229.875 33.3828Z" fill="#3F3D56"/>
<path d="M251.005 34.0038C250.893 34.0166 250.791 34.0724 250.72 34.1593C250.65 34.2462 250.616 34.3573 250.626 34.469V41.6782C250.614 41.7344 250.615 41.7926 250.629 41.8483C250.642 41.9041 250.668 41.9562 250.704 42.0007C250.741 42.0453 250.787 42.0812 250.838 42.1058C250.89 42.1305 250.947 42.1433 251.005 42.1433C251.062 42.1433 251.119 42.1305 251.171 42.1058C251.223 42.0812 251.268 42.0453 251.305 42.0007C251.341 41.9562 251.367 41.9041 251.38 41.8483C251.394 41.7926 251.395 41.7344 251.383 41.6782V34.469C251.394 34.3573 251.36 34.2462 251.289 34.1593C251.218 34.0724 251.116 34.0166 251.005 34.0038V34.0038Z" fill="#3F3D56"/>
<path d="M229.254 38.8831C229.045 38.8831 228.875 38.9826 228.875 39.1049V42.5426C228.875 42.6649 229.045 42.7644 229.254 42.7644C229.463 42.7644 229.633 42.6649 229.633 42.5426V39.1049C229.633 38.9826 229.463 38.8831 229.254 38.8831Z" fill="#3F3D56"/>
<path d="M295.682 36.7608C304.298 36.7608 311.283 29.7805 311.283 21.1698C311.283 12.5592 304.298 5.57892 295.682 5.57892C287.065 5.57892 280.081 12.5592 280.081 21.1698C280.081 29.7805 287.065 36.7608 295.682 36.7608Z" fill="#A0616A"/>
<path d="M313.101 28.3335C311.883 30.7693 310.724 32.2928 308.618 33.6545C308.511 33.3441 308.425 33.0269 308.36 32.7051C308.135 33.2058 307.917 33.7053 307.687 34.2071C306.355 34.9505 307.793 33.8036 305.612 34.6348L303.778 31.4888C303.275 29.9954 303.987 28.369 304.892 27.0766C305.799 25.7895 306.927 24.6095 307.418 23.1131C307.909 21.6168 307.473 19.6344 306.001 19.0774C304.55 18.5212 302.948 19.5764 301.406 19.3931C299.626 19.1833 298.415 17.3226 298.319 15.5326C298.222 13.7424 298.953 12.0236 299.668 10.3855C297.513 11.9289 290.837 14.6941 287.203 14.8262C287.105 13.6933 286.581 12.6397 285.737 11.8774C285.885 12.9087 285.634 13.9576 285.034 14.8102C281.476 14.6279 280.808 19.7925 278.97 17.9223C279.544 17.634 277.43 11.2156 278.004 10.9272C277.563 9.71882 277.122 8.51396 276.682 7.31261C277.5 7.51852 278.324 7.72858 279.146 7.93336C279.198 7.49409 279.331 7.06841 279.54 6.67863C280.127 6.34445 280.751 6.08113 281.4 5.8942C281.609 5.8384 281.823 5.78148 282.039 5.73511C282.36 5.66377 282.684 5.61092 283.011 5.57683C282.538 5.30271 282.061 5.03497 281.586 4.75561C281.53 4.72355 281.478 4.69035 281.422 4.6583C282.088 4.20076 282.784 3.78806 283.505 3.42294C286.545 1.83361 289.7 0.21415 293.127 0.0160472C295.354 -0.125614 297.56 0.509257 299.371 1.81233C300.932 2.93286 302.822 3.50118 304.743 3.42735C305.677 3.42024 306.601 3.62581 307.444 4.02848C307.058 4.41707 306.635 4.76812 306.183 5.07689C307.171 5.10258 308.155 5.12941 309.145 5.16039C310.254 6.16864 311.189 7.35241 311.912 8.66422C315.38 14.5852 316.173 22.1995 313.101 28.3335H313.101Z" fill="#2F2E41"/>
<path d="M263.001 271.229C262.883 270.451 262.58 269.712 262.118 269.074C261.657 268.436 261.049 267.918 260.346 267.562C253.751 264.188 246.839 261.474 239.71 259.458L233.039 268.247L237.969 258.973C219.72 254.08 200.539 253.808 182.159 258.182L184.724 265.251L180.533 258.586C172.257 260.666 164.243 263.677 156.646 267.562C155.946 267.92 155.341 268.438 154.88 269.074C154.419 269.71 154.115 270.446 153.993 271.221C153.87 271.997 153.933 272.791 154.176 273.538C154.418 274.285 154.834 274.964 155.39 275.52C158.274 275.697 160.178 278.375 162.079 282.205C162.808 282.923 163.741 283.399 164.75 283.567C165.76 283.735 166.796 283.587 167.718 283.143C180.458 277.088 194.389 273.946 208.496 273.946C222.604 273.946 236.534 277.088 249.274 283.143C250.196 283.587 251.233 283.735 252.242 283.567C253.252 283.399 254.184 282.924 254.912 282.205C256.055 279.108 258.411 277.277 261.603 275.52C262.161 274.967 262.579 274.29 262.822 273.544C263.065 272.798 263.127 272.004 263.001 271.229V271.229Z" fill="#666CDE"/>
<path d="M226.144 301.496C224.683 301.267 223.213 301.066 221.734 300.895L215.939 310.111L220.257 300.738C213.24 300.022 206.173 299.947 199.142 300.516L203.563 310.111L197.612 300.649C195.341 300.864 193.087 301.146 190.849 301.496C190.082 301.609 189.364 301.936 188.775 302.439C188.187 302.943 187.752 303.601 187.521 304.34C187.276 305.085 187.242 305.884 187.424 306.647C187.607 307.41 187.998 308.108 188.554 308.662C190.947 311.005 193.585 314.258 197.922 318.024C198.345 318.452 198.856 318.784 199.42 318.995C199.984 319.207 200.587 319.294 201.187 319.25C203.59 319.073 206.049 318.982 208.496 318.982H208.496C210.943 318.982 213.402 319.073 215.805 319.25C216.406 319.293 217.008 319.206 217.572 318.994C218.136 318.782 218.647 318.451 219.071 318.024C223.549 314.204 225.811 310.701 228.439 308.662C228.995 308.108 229.386 307.41 229.568 306.647C229.75 305.884 229.717 305.085 229.471 304.34C229.24 303.601 228.806 302.942 228.217 302.439C227.629 301.936 226.91 301.609 226.144 301.496V301.496Z" fill="#666CDE"/>
<path d="M236.851 14.738C235.984 14.0137 234.988 13.4137 233.9 12.9608L233.345 13.4996L233.698 12.8789C232.242 12.3069 230.661 12.0074 229.06 12.0001C227.459 11.9929 225.875 12.278 224.411 12.8367L224.7 13.3753L224.257 12.8966C223.114 13.3539 222.068 13.9724 221.162 14.7265C221.069 14.8011 221.012 14.9028 221.001 15.0119C220.996 15.0711 221.007 15.1306 221.031 15.1861C221.055 15.2417 221.093 15.2921 221.142 15.334C221.282 15.3908 221.481 15.5212 221.776 15.8791C221.867 15.9559 221.989 15.9993 222.116 16C222.243 16.0007 222.366 15.9586 222.457 15.8827C224.212 14.4219 226.558 13.6052 229 13.6052C231.442 13.6052 233.788 14.4219 235.543 15.8827C235.634 15.9586 235.757 16.0007 235.884 16C236.011 15.9993 236.133 15.9559 236.224 15.8791C236.521 15.6491 236.591 15.324 236.846 15.344C236.936 15.2691 236.991 15.1684 236.999 15.061C237.003 15.0012 236.992 14.9414 236.966 14.8856C236.941 14.8299 236.902 14.7795 236.851 14.738V14.738Z" fill="#666CDE"/>
<path d="M234.994 17.6962C234.982 17.6144 234.951 17.5367 234.905 17.4697C234.858 17.4026 234.797 17.3481 234.726 17.3107C234.061 16.9562 233.365 16.6709 232.646 16.4589L231.974 17.3827L232.471 16.408C230.631 15.8938 228.698 15.8652 226.845 16.3248L227.104 17.0678L226.681 16.3673C225.847 16.5859 225.039 16.9024 224.274 17.3107C224.203 17.3483 224.142 17.4028 224.096 17.4696C224.049 17.5365 224.018 17.6138 224.006 17.6953C223.994 17.7769 224 17.8603 224.025 17.9388C224.049 18.0173 224.091 18.0887 224.147 18.1471C224.438 18.1657 224.63 18.4472 224.821 18.8497C224.895 18.9252 224.989 18.9752 225.09 18.9929C225.192 19.0106 225.297 18.995 225.39 18.9484C226.674 18.3119 228.078 17.9817 229.5 17.9817C230.922 17.9817 232.326 18.3119 233.61 18.9484C233.703 18.995 233.807 19.0106 233.909 18.9929C234.011 18.9753 234.105 18.9253 234.178 18.8497C234.294 18.5243 234.531 18.3318 234.853 18.1471C234.909 18.0891 234.951 18.0179 234.976 17.9394C235 17.861 235.006 17.7776 234.994 17.6962Z" fill="#666CDE"/>
<path d="M230.666 21.1419C230.528 21.118 230.389 21.097 230.25 21.0791L229.703 22.043L230.11 21.0627C229.448 20.9878 228.781 20.98 228.117 21.0395L228.534 22.043L227.973 21.0533C227.758 21.0759 227.545 21.1054 227.334 21.1419C227.262 21.1538 227.194 21.188 227.138 21.2406C227.083 21.2932 227.042 21.3621 227.02 21.4394C226.997 21.5174 226.994 21.6009 227.011 21.6807C227.028 21.7605 227.065 21.8335 227.118 21.8914C227.343 22.1364 227.593 22.4767 228.002 22.8705C228.042 22.9153 228.09 22.95 228.143 22.9722C228.196 22.9943 228.253 23.0034 228.31 22.9988C228.537 22.9803 228.769 22.9708 229 22.9708H229C229.231 22.9708 229.463 22.9803 229.69 22.9988C229.747 23.0033 229.804 22.9942 229.857 22.9721C229.91 22.9499 229.958 22.9153 229.998 22.8705C230.421 22.471 230.634 22.1047 230.882 21.8914C230.935 21.8335 230.972 21.7605 230.989 21.6807C231.006 21.6009 231.003 21.5174 230.98 21.4394C230.958 21.3621 230.917 21.2932 230.862 21.2406C230.806 21.188 230.738 21.1538 230.666 21.1419V21.1419Z" fill="#666CDE"/>
<path d="M230.4 16.8216C231.93 18.7858 233.272 19.6662 233.653 21.8329C231.648 21 231.496 20.7415 229.442 18.1075C227.389 15.4735 225.232 14.3821 224.85 12.2155C227.338 12.8937 227.528 13.9771 230.4 16.8216Z" fill="#A21A1A"/>
<path d="M228.98 16.041C230.884 14.412 231.7 13.0522 233.875 12.5102C232.648 15 232.892 14.6711 230.339 16.8573C227.785 19.0435 226.802 21.2043 224.627 21.7466C225.172 19.3006 226.26 19.0304 228.98 16.041Z" fill="#A21A1A"/>
</g>
<defs>
<clipPath id="clip0_925_118">
<rect width="446" height="321" fill="white"/>
</clipPath>
</defs>
</svg>
