<svg width="64" height="64" viewBox="0 0 64 64" fill="none" xmlns="http://www.w3.org/2000/svg">
<path d="M61.5 26.8C59.1 12.7 46.8 2 32 2C17.2 2 4.9 12.7 2.5 26.8L32 12L61.5 26.8ZM2.5 37.2C4.9 51.3 17.2 62 32 62C46.8 62 59.1 51.3 61.5 37.2L32 52L2.5 37.2Z" fill="#699635"/>
<path d="M32 12L2.5 26.8C2.2 28.5 2 30.2 2 32C2 33.8 2.2 35.5 2.5 37.2L32 52L61.5 37.2C61.8 35.5 62 33.8 62 32C62 30.2 61.8 28.5 61.5 26.8L32 12Z" fill="#FFE62E"/>
<path d="M26 28.4C22.8 28.4 19.8 29.1 17.1 30.3C17 30.9 17 31.4 17 32C17 40.3 23.7 47 32 47C37.6 47 42.5 43.9 45.1 39.4C41.4 32.9 34.2 28.4 26 28.4Z" fill="#428BC1"/>
<path d="M46.8 34.4C46.9 33.6 47 32.8 47 32C47 23.7 40.3 17 32 17C26.1 17 21 20.4 18.5 25.4C20.9 24.7 23.4 24.3 26 24.3C34.5 24.3 42 28.3 46.8 34.4Z" fill="#428BC1"/>
<path d="M26 24.3C23.4 24.3 20.9 24.7 18.5 25.4C17.8 26.9 17.3 28.5 17.1 30.3C19.8 29.1 22.8 28.4 26 28.4C34.2 28.4 41.4 32.8 45.1 39.3C46 37.8 46.5 36.1 46.8 34.4C42 28.3 34.5 24.3 26 24.3Z" fill="white"/>
<path d="M22 33C22.5523 33 23 32.5523 23 32C23 31.4477 22.5523 31 22 31C21.4477 31 21 31.4477 21 32C21 32.5523 21.4477 33 22 33Z" fill="white"/>
<path d="M26 39C26.5523 39 27 38.5523 27 38C27 37.4477 26.5523 37 26 37C25.4477 37 25 37.4477 25 38C25 38.5523 25.4477 39 26 39Z" fill="white"/>
<path d="M32 39C32.5523 39 33 38.5523 33 38C33 37.4477 32.5523 37 32 37C31.4477 37 31 37.4477 31 38C31 38.5523 31.4477 39 32 39Z" fill="white"/>
<path d="M32 43C32.5523 43 33 42.5523 33 42C33 41.4477 32.5523 41 32 41C31.4477 41 31 41.4477 31 42C31 42.5523 31.4477 43 32 43Z" fill="white"/>
<path d="M40 39C40.5523 39 41 38.5523 41 38C41 37.4477 40.5523 37 40 37C39.4477 37 39 37.4477 39 38C39 38.5523 39.4477 39 40 39Z" fill="white"/>
<path d="M40 43C40.5523 43 41 42.5523 41 42C41 41.4477 40.5523 41 40 41C39.4477 41 39 41.4477 39 42C39 42.5523 39.4477 43 40 43Z" fill="white"/>
<path d="M36 41C36.5523 41 37 40.5523 37 40C37 39.4477 36.5523 39 36 39C35.4477 39 35 39.4477 35 40C35 40.5523 35.4477 41 36 41Z" fill="white"/>
<path d="M22 37C22.5523 37 23 36.5523 23 36C23 35.4477 22.5523 35 22 35C21.4477 35 21 35.4477 21 36C21 36.5523 21.4477 37 22 37Z" fill="white"/>
</svg>
