<svg width="54" height="55" viewBox="0 0 54 55" fill="none" xmlns="http://www.w3.org/2000/svg">
<path d="M27 4.93237C24.0453 4.93237 21.1194 5.51435 18.3896 6.64508C15.6598 7.77581 13.1794 9.43315 11.0901 11.5225C6.87053 15.742 4.5 21.465 4.5 27.4324C4.5 37.3774 10.9575 45.8149 19.89 48.8074C21.015 48.9874 21.375 48.2899 21.375 47.6824V43.8799C15.1425 45.2299 13.815 40.8649 13.815 40.8649C12.78 38.2549 11.3175 37.5574 11.3175 37.5574C9.27 36.1624 11.475 36.2074 11.475 36.2074C13.725 36.3649 14.9175 38.5249 14.9175 38.5249C16.875 41.9449 20.1825 40.9324 21.465 40.3924C21.6675 38.9299 22.2525 37.9399 22.8825 37.3774C17.8875 36.8149 12.645 34.8799 12.645 26.3074C12.645 23.8099 13.5 21.8074 14.9625 20.2099C14.7375 19.6474 13.95 17.3074 15.1875 14.2699C15.1875 14.2699 17.0775 13.6624 21.375 16.5649C23.1525 16.0699 25.0875 15.8224 27 15.8224C28.9125 15.8224 30.8475 16.0699 32.625 16.5649C36.9225 13.6624 38.8125 14.2699 38.8125 14.2699C40.05 17.3074 39.2625 19.6474 39.0375 20.2099C40.5 21.8074 41.355 23.8099 41.355 26.3074C41.355 34.9024 36.09 36.7924 31.0725 37.3549C31.8825 38.0524 32.625 39.4249 32.625 41.5174V47.6824C32.625 48.2899 32.985 49.0099 34.1325 48.8074C43.065 45.7924 49.5 37.3774 49.5 27.4324C49.5 24.4776 48.918 21.5518 47.7873 18.822C46.6566 16.0922 44.9992 13.6118 42.9099 11.5225C40.8206 9.43315 38.3402 7.77581 35.6104 6.64508C32.8806 5.51435 29.9547 4.93237 27 4.93237Z" fill="#91ADBD"/>
</svg>
