<svg width="147" height="35" viewBox="0 0 147 35" fill="none" xmlns="http://www.w3.org/2000/svg">
<path d="M51.826 23.234C49.5553 23.234 47.8567 22.5927 46.73 21.31C45.6207 20.01 45.066 18.19 45.066 15.85C45.066 14.082 45.3607 12.6173 45.95 11.456C46.5567 10.2773 47.3973 9.39333 48.472 8.804C49.5467 8.21467 50.812 7.92 52.268 7.92C52.9267 7.92 53.6373 7.98067 54.4 8.102C55.18 8.22333 55.8993 8.414 56.558 8.674C56.5927 9.246 56.5927 9.86133 56.558 10.52C56.5233 11.1613 56.454 11.8287 56.35 12.522H54.842L54.348 10.26C54.3133 10.1387 54.2613 10.0173 54.192 9.896C54.1227 9.77467 54.01 9.67067 53.854 9.584C53.6633 9.46267 53.3773 9.35867 52.996 9.272C52.632 9.168 52.2507 9.116 51.852 9.116C50.656 9.116 49.7113 9.61867 49.018 10.624C48.342 11.612 48.004 13.2413 48.004 15.512C48.004 16.8467 48.134 18.008 48.394 18.996C48.6713 19.9667 49.096 20.7207 49.668 21.258C50.24 21.778 50.9853 22.038 51.904 22.038C52.2853 22.038 52.658 21.9947 53.022 21.908C53.4033 21.804 53.7153 21.6567 53.958 21.466C54.062 21.3793 54.1487 21.284 54.218 21.18C54.2873 21.076 54.3567 20.946 54.426 20.79L55.076 18.762L56.584 18.866C56.6013 19.4207 56.5927 20.01 56.558 20.634C56.5233 21.2407 56.4627 21.8473 56.376 22.454C55.7693 22.6793 55.0587 22.8613 54.244 23C53.4293 23.156 52.6233 23.234 51.826 23.234ZM66.2655 17.722C66.2655 16.6993 66.1875 15.85 66.0315 15.174C65.8755 14.4807 65.6155 13.9607 65.2515 13.614C64.8875 13.25 64.3849 13.068 63.7435 13.068C62.9462 13.068 62.3482 13.406 61.9495 14.082C61.5682 14.7407 61.3775 15.8587 61.3775 17.436C61.3775 18.4413 61.4469 19.2907 61.5855 19.984C61.7415 20.66 62.0015 21.18 62.3655 21.544C62.7295 21.908 63.2322 22.09 63.8735 22.09C64.6882 22.09 65.2862 21.752 65.6675 21.076C66.0662 20.4 66.2655 19.282 66.2655 17.722ZM58.6475 17.644C58.6475 16.2747 58.8815 15.1653 59.3495 14.316C59.8349 13.4667 60.4762 12.8513 61.2735 12.47C62.0882 12.0713 62.9895 11.872 63.9775 11.872C65.1042 11.872 66.0315 12.0973 66.7595 12.548C67.5049 12.9813 68.0595 13.6227 68.4235 14.472C68.7875 15.3213 68.9695 16.3353 68.9695 17.514C68.9695 18.8833 68.7269 19.9927 68.2415 20.842C67.7735 21.674 67.1409 22.2893 66.3435 22.688C65.5462 23.0693 64.6449 23.26 63.6395 23.26C62.5302 23.26 61.6029 23.0347 60.8575 22.584C60.1122 22.1333 59.5575 21.492 59.1935 20.66C58.8295 19.828 58.6475 18.8227 58.6475 17.644ZM75.1498 23.208C74.3698 23.208 73.6505 23.026 72.9918 22.662C72.3505 22.2807 71.8392 21.7087 71.4578 20.946C71.0765 20.166 70.8858 19.1433 70.8858 17.878C70.8858 16.5433 71.1112 15.434 71.5618 14.55C72.0125 13.666 72.6538 12.9987 73.4858 12.548C74.3178 12.0973 75.2972 11.872 76.4238 11.872C76.9092 11.872 77.3685 11.9153 77.8018 12.002C78.2525 12.0713 78.5992 12.158 78.8418 12.262L78.4778 13.718C78.3045 13.5447 78.0272 13.3973 77.6458 13.276C77.2818 13.1547 76.8832 13.094 76.4498 13.094C75.9125 13.094 75.4185 13.2327 74.9678 13.51C74.5345 13.77 74.1878 14.2207 73.9278 14.862C73.6852 15.5033 73.5552 16.396 73.5378 17.54C73.5378 18.5973 73.6505 19.4293 73.8758 20.036C74.1012 20.6253 74.3958 21.05 74.7598 21.31C75.1412 21.5527 75.5658 21.674 76.0338 21.674C76.5192 21.674 76.9785 21.5873 77.4118 21.414C77.8452 21.2407 78.2092 21.0067 78.5038 20.712L78.8158 21.154C78.4518 21.726 77.9665 22.2113 77.3598 22.61C76.7532 23.0087 76.0165 23.208 75.1498 23.208ZM80.6618 6.334V21.076C80.6618 21.3013 80.7052 21.4573 80.7918 21.544C80.8958 21.6307 81.0258 21.6827 81.1818 21.7L82.2218 21.804V22.818C81.9965 22.8873 81.6932 22.9567 81.3118 23.026C80.9478 23.1127 80.5925 23.156 80.2458 23.156C79.6218 23.156 79.1452 22.9827 78.8158 22.636C78.4865 22.272 78.2785 21.804 78.1918 21.232V8.336C78.1918 8.00667 78.0272 7.816 77.6978 7.764L76.3198 7.582V6.568C76.9092 6.39467 77.5765 6.26467 78.3218 6.178C79.0672 6.074 79.7258 6.01333 80.2978 5.996L80.6618 6.334ZM83.7843 17.696C83.7843 15.8413 84.2436 14.4113 85.1623 13.406C86.0809 12.3833 87.3376 11.872 88.9323 11.872C90.2323 11.872 91.2376 12.2013 91.9483 12.86C92.6589 13.5187 93.0143 14.446 93.0143 15.642C93.0143 15.8327 92.9969 16.058 92.9623 16.318C92.9449 16.578 92.9189 16.8207 92.8843 17.046H85.5523V15.98H90.5963C90.6136 15.8933 90.6223 15.8153 90.6223 15.746C90.6396 15.6767 90.6483 15.59 90.6483 15.486C90.6483 14.758 90.4749 14.1687 90.1283 13.718C89.7989 13.2673 89.3136 13.042 88.6723 13.042C87.9616 13.042 87.3983 13.3627 86.9823 14.004C86.5836 14.628 86.3843 15.6853 86.3843 17.176C86.3843 18.268 86.4969 19.1433 86.7223 19.802C86.9649 20.4433 87.3116 20.9113 87.7623 21.206C88.2129 21.4833 88.7503 21.622 89.3743 21.622C89.9636 21.622 90.5096 21.5007 91.0123 21.258C91.5323 21.0153 91.9483 20.6773 92.2603 20.244L92.9363 20.686C92.7109 21.4833 92.2169 22.116 91.4543 22.584C90.6916 23.0347 89.7556 23.26 88.6463 23.26C87.5543 23.26 86.6443 23.026 85.9163 22.558C85.2056 22.09 84.6683 21.44 84.3043 20.608C83.9576 19.776 83.7843 18.8053 83.7843 17.696ZM104.004 12.47L101.014 23.078H98.6217L94.5657 10.104C94.4791 9.82667 94.3057 9.65333 94.0457 9.584L92.8757 9.298V8.18H98.9597V9.298L97.1397 9.662L100.468 21.336H100.078L103.146 10.624L104.004 12.47ZM102.574 10.104C102.47 9.82667 102.296 9.65333 102.054 9.584L101.118 9.298V8.18H107.046V9.298L105.122 9.662L108.398 21.336H107.93L111.128 9.662L109.308 9.298V8.18H114.352V9.298L113.13 9.584C112.991 9.61867 112.87 9.67933 112.766 9.766C112.679 9.83533 112.618 9.948 112.584 10.104L108.866 23.078H106.474L103.354 12.418L102.574 10.104ZM116.709 23.208C115.807 23.208 115.062 22.974 114.473 22.506C113.901 22.038 113.615 21.3793 113.615 20.53C113.615 19.8193 113.823 19.2473 114.239 18.814C114.655 18.3633 115.183 18.034 115.825 17.826C116.466 17.618 117.125 17.488 117.801 17.436L120.323 17.254V18.346L118.321 18.502C117.61 18.554 117.081 18.7273 116.735 19.022C116.388 19.3167 116.215 19.7413 116.215 20.296C116.215 20.7467 116.336 21.0933 116.579 21.336C116.821 21.5787 117.185 21.7 117.671 21.7C118.191 21.7 118.693 21.5873 119.179 21.362C119.664 21.1367 120.045 20.8507 120.323 20.504L120.557 21.076C120.21 21.7173 119.69 22.2373 118.997 22.636C118.321 23.0173 117.558 23.208 116.709 23.208ZM113.927 14.264C114.204 13.5187 114.733 12.938 115.513 12.522C116.31 12.106 117.255 11.898 118.347 11.898C119.699 11.898 120.695 12.2273 121.337 12.886C121.978 13.5447 122.299 14.5327 122.299 15.85V21.076C122.299 21.4573 122.481 21.6653 122.845 21.7L123.885 21.804V22.818C123.677 22.87 123.382 22.9393 123.001 23.026C122.619 23.1127 122.255 23.156 121.909 23.156C121.354 23.156 120.903 23.0173 120.557 22.74C120.21 22.4453 119.985 21.9773 119.881 21.336V16.058C119.881 15.1567 119.69 14.5327 119.309 14.186C118.945 13.822 118.381 13.64 117.619 13.64C117.047 13.64 116.492 13.7353 115.955 13.926C115.435 14.1167 114.958 14.42 114.525 14.836L113.927 14.264ZM133.029 13.484L131.469 13.198V12.132H135.629V13.198L134.927 13.406C134.65 13.4927 134.468 13.6487 134.381 13.874L131.079 23.156H129.779L133.029 13.484ZM130.585 23.156H128.921L125.333 13.874C125.212 13.6313 125.03 13.4753 124.787 13.406L124.085 13.198V12.132H129.519V13.198L127.985 13.484L130.975 22.142L130.585 23.156ZM136.343 17.696C136.343 15.8413 136.802 14.4113 137.721 13.406C138.64 12.3833 139.896 11.872 141.491 11.872C142.791 11.872 143.796 12.2013 144.507 12.86C145.218 13.5187 145.573 14.446 145.573 15.642C145.573 15.8327 145.556 16.058 145.521 16.318C145.504 16.578 145.478 16.8207 145.443 17.046H138.111V15.98H143.155C143.172 15.8933 143.181 15.8153 143.181 15.746C143.198 15.6767 143.207 15.59 143.207 15.486C143.207 14.758 143.034 14.1687 142.687 13.718C142.358 13.2673 141.872 13.042 141.231 13.042C140.52 13.042 139.957 13.3627 139.541 14.004C139.142 14.628 138.943 15.6853 138.943 17.176C138.943 18.268 139.056 19.1433 139.281 19.802C139.524 20.4433 139.87 20.9113 140.321 21.206C140.772 21.4833 141.309 21.622 141.933 21.622C142.522 21.622 143.068 21.5007 143.571 21.258C144.091 21.0153 144.507 20.6773 144.819 20.244L145.495 20.686C145.27 21.4833 144.776 22.116 144.013 22.584C143.25 23.0347 142.314 23.26 141.205 23.26C140.113 23.26 139.203 23.026 138.475 22.558C137.764 22.09 137.227 21.44 136.863 20.608C136.516 19.776 136.343 18.8053 136.343 17.696Z" fill="#484A50"/>
<g clip-path="url(#clip0_21_2)">
<mask id="mask0_21_2" style="mask-type:luminance" maskUnits="userSpaceOnUse" x="0" y="0" width="35" height="35">
<path d="M35 17.5C35 7.83502 27.165 0 17.5 0C7.83502 0 0 7.83502 0 17.5C0 27.165 7.83502 35 17.5 35C27.165 35 35 27.165 35 17.5Z" fill="white"/>
</mask>
<g mask="url(#mask0_21_2)">
<path d="M41.0985 20.947C51.7576 20.947 11.3629 29.5113 5.60551 29.5113C-0.151954 29.5113 -5.03784 20.752 -5.03784 19.0909C-1.32572 13.2576 32.0834 -4.50761 22.8031 9.81057C12.6659 25.4508 27.5292 20.947 41.0985 20.947Z" fill="url(#paint0_linear_21_2)" fill-opacity="0.89"/>
<path d="M39.8193 24.165C41.2713 34.7248 11.3971 31.012 5.63965 31.012C-0.117812 31.012 -6.7334 21.2462 -6.7334 19.585C-6.7334 17.9238 4.0303 14.5577 9.05762 19.585C13.6377 24.165 35.7955 22.2727 39.8193 24.165Z" fill="url(#paint1_linear_21_2)"/>
<path d="M38.9306 29.4434C44.9688 38.2273 11.8756 38.1884 6.11816 38.1884C0.360702 38.1884 -5.02441 36.0264 -5.02441 34.3653C-5.02441 32.7041 -3.72559 21.6344 6.11816 26.4356C23.2602 34.7963 25.9848 20.4167 38.9306 29.4434Z" fill="url(#paint2_linear_21_2)"/>
</g>
</g>
<defs>
<linearGradient id="paint0_linear_21_2" x1="17.7591" y1="8.30339" x2="17.7591" y2="29.511" gradientUnits="userSpaceOnUse">
<stop stop-color="#54BFFB"/>
<stop offset="1" stop-color="#C6EAFF"/>
</linearGradient>
<linearGradient id="paint1_linear_21_2" x1="16.5685" y1="16.9338" x2="16.5685" y2="31.6449" gradientUnits="userSpaceOnUse">
<stop stop-color="#4F9FE8"/>
<stop offset="1" stop-color="#77B3EA"/>
</linearGradient>
<linearGradient id="paint2_linear_21_2" x1="17.3195" y1="22.3466" x2="17.3195" y2="38.1884" gradientUnits="userSpaceOnUse">
<stop stop-color="#3169BE"/>
<stop offset="1" stop-color="#5C91E1"/>
</linearGradient>
<clipPath id="clip0_21_2">
<rect width="35" height="35" fill="white"/>
</clipPath>
</defs>
</svg>
