<svg width="16" height="20" viewBox="0 0 16 20" fill="none" xmlns="http://www.w3.org/2000/svg">
<path d="M7.141 2C5.559 2 4.754 2.169 4.013 2.565C3.39491 2.89 2.89 3.39491 2.565 4.013C2.169 4.753 2 5.559 2 7.14V12.858C2 14.44 2.169 15.245 2.565 15.986C2.901 16.6153 3.38367 17.098 4.013 17.434C4.753 17.83 5.559 17.999 7.141 17.999H8.859C10.441 17.999 11.246 17.83 11.987 17.434C12.6051 17.109 13.11 16.6041 13.435 15.986C13.831 15.246 14 14.44 14 12.858V7.14C14 5.558 13.831 4.753 13.435 4.012C13.11 3.39391 12.6051 2.889 11.987 2.564C11.247 2.169 10.441 2 8.86 2H7.141ZM7.141 0H8.859C10.873 0 11.953 0.278 12.93 0.801C13.8973 1.31233 14.6882 2.10296 15.2 3.07C15.722 4.048 16.001 5.128 16.001 7.142V12.86C16.001 14.874 15.722 15.954 15.2 16.931C14.6882 17.898 13.8973 18.6887 12.93 19.2C11.953 19.722 10.873 20.001 8.859 20.001H7.14C5.126 20.001 4.046 19.722 3.068 19.2C2.10147 18.6883 1.31123 17.8978 0.8 16.931C0.278 15.954 0 14.874 0 12.86V7.14C0 5.126 0.278 4.046 0.801 3.068C1.31281 2.10184 2.10339 1.31196 3.07 0.801C4.047 0.278 5.127 0 7.141 0ZM7 4H9V9H7V4Z" fill="#E8E8E8"/>
</svg>
